<svg xmlns="http://www.w3.org/2000/svg" viewBox="0 0 1625 958"><defs><style>.cls-1{fill:#fff;}</style></defs><g id="Layer_2" data-name="Layer 2"><g id="Layer_1-2" data-name="Layer 1"><path class="cls-1" d="M0,0H1625V958H0ZM810.85,947.78h1.49c74.76-1.32,149-7.68,222.72-20.68,91.55-16.14,180.45-41.17,265.47-79.16,65-29,125.86-64.75,179.83-111.54,41.4-35.9,77-76.67,102-125.8,34-66.8,43.79-136.42,22.61-209.22-15.29-52.56-43.76-97.59-80.17-137.89-45.19-50-99-89-157.64-121.48C1276.31,91.73,1179,59.4,1077.75,38c-49.59-10.49-99.61-18.41-150.12-22.4-39.17-3.1-78.48-5.93-117.74-6.09-62.2-.25-124.13,5.29-185.71,14.35-81.46,12-161.2,30.93-238.59,59.24-75.8,27.71-147.51,63.25-212.22,112-47.8,36-89.56,77.7-121.07,129-30,48.8-46.22,101.65-46.19,159.11,0,26.16,4.69,51.7,12.45,76.67,16.39,52.76,45.7,97.8,82.94,138,42.88,46.28,93.19,83,147.93,113.88C342,863.88,441.41,897.2,545,919,632.63,937.43,721.33,946.47,810.85,947.78Z"/><path d="M810.85,947.78C721.33,946.47,632.63,937.43,545,919,441.41,897.2,342,863.88,249.43,811.7c-54.74-30.86-105-67.6-147.93-113.88-37.24-40.2-66.55-85.24-82.94-138-7.76-25-12.44-50.51-12.45-76.67C6.08,425.69,22.33,372.84,52.3,324c31.51-51.29,73.27-93,121.07-129,64.71-48.72,136.42-84.26,212.22-112C463,54.77,542.72,35.83,624.18,23.84c61.58-9.06,123.51-14.6,185.71-14.35,39.26.16,78.57,3,117.74,6.09,50.51,4,100.53,11.91,150.12,22.4C1179,59.4,1276.31,91.73,1367.14,142c58.68,32.49,112.45,71.48,157.64,121.48,36.41,40.3,64.88,85.33,80.17,137.89,21.18,72.8,11.41,142.42-22.61,209.22-25,49.13-60.58,89.9-102,125.8-54,46.79-114.85,82.51-179.83,111.54-85,38-173.92,63-265.47,79.16-73.68,13-148,19.36-222.72,20.68ZM812.7,81a1217.29,1217.29,0,0,0-166.36,13.9c-72.3,11.21-142.93,28.84-211.22,55.3-66.07,25.61-128.22,58.3-183.25,103.47-40.86,33.55-75.49,72.32-99.26,120-17.67,35.48-27.56,73-26.45,112.68,1.19,42.57,15.5,81.51,37.26,117.78,27.61,46,65,83,107.77,114.76,54.18,40.27,114,69.89,177.15,93.13,66.34,24.42,134.71,40.83,204.59,51.18,52.14,7.73,104.56,12.68,157.27,12.5,65.94-.21,131.38-6.89,196.25-18.78,73.79-13.52,145.57-33.88,214.38-64.07,61.4-26.94,118.67-60.54,168.44-105.94,37.59-34.29,68.53-73.54,88.18-121,12.91-31.17,19.76-63.64,18.56-97.37-1.18-33.43-10.91-64.87-25.71-94.74-23.6-47.61-58.1-86.29-98.78-119.79-53.78-44.27-114.44-76.55-178.94-102-67-26.48-136.41-44.28-207.44-55.88A1185.57,1185.57,0,0,0,812.7,81Z"/><path class="cls-1" d="M812.7,81A1185.57,1185.57,0,0,1,985.14,96.11c71,11.6,140.41,29.4,207.44,55.88,64.5,25.49,125.16,57.77,178.94,102,40.68,33.5,75.18,72.18,98.78,119.79,14.8,29.87,24.53,61.31,25.71,94.74,1.2,33.73-5.65,66.2-18.56,97.37-19.65,47.43-50.59,86.68-88.18,121-49.77,45.4-107,79-168.44,105.94C1152,823,1080.24,843.39,1006.45,856.91c-64.87,11.89-130.31,18.57-196.25,18.78-52.71.18-105.13-4.77-157.27-12.5C583.05,852.84,514.68,836.43,448.34,812c-63.14-23.24-123-52.86-177.15-93.13C228.41,687.09,191,650.15,163.42,604.12c-21.76-36.27-36.07-75.21-37.26-117.78-1.11-39.65,8.78-77.2,26.45-112.68,23.77-47.72,58.4-86.49,99.26-120,55-45.17,117.18-77.86,183.25-103.47,68.29-26.46,138.92-44.09,211.22-55.3A1217.29,1217.29,0,0,1,812.7,81Zm7.06,777.46c24.55-1.93,58.49-3.9,92.27-7.39a944.53,944.53,0,0,0,198.48-42.23c68.26-22.44,132.9-52.31,191.15-94.91,43-31.49,80.58-68.31,107.46-114.88,36.27-62.84,45.07-128.81,20.73-198-16.44-46.74-45.12-85.47-80.54-119.48-48.08-46.15-104.25-80-165-106.52-112.6-49.24-231.12-71.6-353.31-76.8-39-1.67-77.91,1.52-116.7,5.6C644.74,111.17,576.5,125.08,510,147c-68.09,22.44-132.55,52.29-190.64,94.81-43.18,31.61-80.78,68.59-107.64,115.38-35.83,62.42-44.55,127.93-20.62,196.61,15.72,45.13,43,82.87,76.67,116.17,44.38,43.84,96.23,76.78,152.48,103C543.85,830.54,675,854.15,819.76,858.41Z"/><path d="M819.76,858.41C675,854.15,543.85,830.54,420.22,773c-56.25-26.2-108.1-59.14-152.48-103-33.72-33.3-61-71-76.67-116.17-23.93-68.68-15.21-134.19,20.62-196.61,26.86-46.79,64.46-83.77,107.64-115.38C377.42,199.3,441.88,169.45,510,147c66.53-21.93,134.77-35.84,204.38-43.18,38.79-4.08,77.65-7.27,116.7-5.6,122.19,5.2,240.71,27.56,353.31,76.8,60.7,26.55,116.87,60.37,165,106.52,35.42,34,64.1,72.74,80.54,119.48,24.34,69.16,15.54,135.13-20.73,198-26.88,46.57-64.41,83.39-107.46,114.88-58.25,42.6-122.89,72.47-191.15,94.91A944.53,944.53,0,0,1,912,851C878.25,854.51,844.31,856.48,819.76,858.41Zm360.63-409.17c-1.1,1.61-1.78,2.48-2.33,3.42-6,10.51-11.69,21.27-18.18,31.49-6.31,9.93-15.48,17-26.28,21.56-14.5,6.13-25,.13-27.87-15.32-1.82-9.72.48-18.92,3.5-27.94q26.32-78.57,52.92-157.06a37.09,37.09,0,0,0-1.36-27.72c-5.67-13-19.29-16.22-30.67-7.72a33.38,33.38,0,0,0-13,19.06c-2.23,9.35-3.52,18.93-5.13,28.43-3.71,22-6.18,44.26-11.32,65.9-7,29.46-18.46,57.32-36.94,81.83-7.12,9.45-15.83,16.68-27.38,19.84-14.44,3.93-26.56-3.64-29.47-18.3-3.17-16,.41-30.79,8.38-44.64,4.15-7.22,8.86-14.1,13.2-21.2,8.16-13.36,16.78-26.46,24.17-40.22,8-14.95,11.17-31.68,14.33-48.16a80.1,80.1,0,0,0,.8-24.24c-2.15-17.87-14.8-30.13-30.83-30.75a39.09,39.09,0,0,0-30.52,12.68c-11.06,11.71-21.29,24.24-31.28,36.89-3.74,4.73-6.43,10.55-8.52,16.26-6.77,18.41-8,37.66-7.49,57.08,0,1,.7,2,1.43,3.91,1.4-1.84,2.32-2.89,3.08-4.06,4.22-6.57,7.54-14,12.84-19.53A80.62,80.62,0,0,1,997,345.39c7.31-3.84,14.86,1.89,14.45,10.17-.58,12-2.44,23.82-7,35.07C998,406.45,988,419.8,976.72,432.45c-13.94,15.63-29.54,30-39.43,48.86-12.72,24.27-19.86,49.6-14.35,77.41,8,40.45,46.5,66.89,87,59.32,19.72-3.69,34.62-15.67,48.74-28.8,4.68-4.35,8.8-9.28,13.82-14.63.71,3.2,1.08,4.82,1.43,6.44,2.95,13.52,12,22.24,23.71,28,16.75,8.19,32,3.93,44.7-8.84A124.53,124.53,0,0,0,1167,564.67c10.52-22.58,14.37-46.65,15.66-71.24C1183.46,479,1184.49,464.48,1180.39,449.24ZM939.75,756.7l2-.45c0-3.13.32-6.3-.07-9.38-.69-5.61-1.86-11.16-2.74-16.75-4.86-30.84-18.35-57.19-41.4-78.31-5.85-5.35-12.8-9.53-19.4-14-2.67-1.81-3.54-3.77-3.32-7,2.5-36.7,4.84-73.42,7.23-110.13,2.19-33.55,4.61-67.09,6.53-100.66,1-17.59,1.39-35.22,1.57-52.84.09-7.84-7.2-16-14.62-17.73-7-1.66-14.51,1.92-18.44,9.74a38.49,38.49,0,0,0-4,13.72c-2.66,31.85-4.81,63.75-7.46,95.6-1,12.14-4.61,23.46-13.3,32.65-7.55,8-17.36,10.53-26.71,6.59-9-3.79-15.75-13.94-14.56-24.05.75-6.48,3.06-12.88,5.35-19.07,6.06-16.36,13.1-32.38,18.59-48.93,4.82-14.51,5.13-29.55-.92-44-6.84-16.35-22.13-20.45-35.51-8.86-19.45,16.86-32,38-33.71,64.13-1.17,18.09-.92,36.28-1.21,54.43a38,38,0,0,0,.85,6l1.4.14c.66-1.92,1.44-3.8,2-5.75,4.09-15.44,7.92-30.95,12.3-46.3,1.2-4.2,3.74-8.11,6.12-11.86A11,11,0,0,1,778,418.43c4.79.82,7.09,4.68,8.43,9a41.9,41.9,0,0,1-1,28.93c-9.54,22.68-20.14,44.91-30,67.47a103.86,103.86,0,0,0-7,21.16c-5,25.39,4.86,48.09,25.65,60.73,18.44,11.22,41.32,7.85,55.9-8.21q6.8-7.5,13.61-15l1.3.39v39.6c-7.08-1.49-14.48-4.21-21.94-4.39-17.43-.44-34.9.16-52.34.7-13,.4-25.26,4.07-36.86,9.85-45.44,22.65-67.62,75.74-51.5,126.12,22.85,71.4,107.53,93.7,161.2,44.86,12.13-11,22.37-24,26.32-40a226.28,226.28,0,0,0,6.19-63.92c-.39-9.51-.06-19.06-.06-29C909.3,688.22,929,719.23,939.75,756.7Zm-525.22-312c.72-1.79,1.25-3,1.69-4.22,13.4-37.89,38.43-66.11,72.65-86.4,12.82-7.6,25.41-16.06,40.85-17.92a4.78,4.78,0,0,0,3.23-3.13c.16-.94-1.57-2.89-2.79-3.25a35.21,35.21,0,0,0-9.76-1.69c-23.57.09-46.52,2.9-67,16-3.12,2-6.69.37-7.73-3.34a19.07,19.07,0,0,1-.48-5.45c.3-13.15,1.19-26.31.8-39.43-.2-6.63-1.37-13.87-4.36-19.67-7.92-15.36-22.77-20.58-40.87-16.8-16.1,3.36-27.89,12.93-38.12,24.86-10.78,12.58-17.83,27.22-22.14,43.18-6,22.17-7.92,44.46-2.83,67.15s9.42,45.62,10.44,69c.42,9.56-3,16.81-10.41,22.47-5,3.78-9,4.39-13.59.32a54.89,54.89,0,0,1-11.69-13.94c-5.19-9.33-4.8-20-4.39-30.28.56-13.91,2.76-27.48,11-39.39,1.21-1.74.91-4.53,1.31-6.84-2.24.63-5.07.6-6.63,2-6.39,5.75-13.37,11.23-18.37,18.09-15.72,21.57-23.68,46.3-27.4,72.55-4.95,34.9,1.2,67.72,19.4,97.86,8.15,13.52,18.93,25.1,34.28,30.83,12.11,4.52,24.71,4.31,37.47,2.82,23.93-2.78,40.46-17.6,45.12-41.29,4-20.26,4.72-40.42.9-61-4.69-25.26-11.95-49.38-24.25-72-11.15-20.53-12-41.91-3.81-63.68,3.25-8.62,7.08-17,14.67-22.79,9-6.85,20.25-3.32,22.63,7.69a62.45,62.45,0,0,1,1.1,21.74,99.77,99.77,0,0,1-14.15,38.12c-1.89,3.07-3.57,6.28-5.55,9.78Zm870.59,169.89c-.31,2.93-.17,4.95-.76,6.73-3,9.08-7.06,17.67-14,24.48-5.78,5.7-12.07,10.88-17.76,16.65-1.59,1.6-1.87,4.49-2.74,6.79,2.21.23,4.84,1.35,6.58.54,9.33-4.33,19-8.34,27.54-13.93,26-17,41.64-40.54,43.15-72.4a20,20,0,0,1,2.72-8.25c8.42-15.28,17.83-30.08,25.38-45.77,9-18.81,15.68-38.42,13.82-60.07-2.43-28.47-20.85-53.2-47.49-60.66-32-9-58.48,2-81.1,24.7-1,1-1.38,2.53-2,3.82l-1.22-1.32c0-4-.29-8,.06-11.9,1.2-13.38-8-24.91-20.38-25.28-13-.38-22.77,10.25-22.1,24.08.2,4.16.57,8.31.57,12.47q0,132.94,0,265.91v6.37h36.77c.62-34.56,1.23-68.7,1.86-104.09C1248.43,621,1265.26,622.62,1285.12,614.61ZM643,517c-.5,2.11-.65,2.87-.87,3.62-6.49,22.68-6.88,45.25,1,67.74,3.39,9.61,7.54,18.51,17.15,23.59a49.57,49.57,0,0,0,27.07,5.39c18.67-1.27,29.38-14,37.62-28.63s12.85-30.71,15.65-47.19C742.34,531.37,743,521,744,510.78c.1-1.13-1.08-2.37-1.66-3.56-1.11.83-2.51,1.47-3.26,2.56s-1,2.81-1.57,4.18c-3.34,7.78-6.25,15.8-10.2,23.26a34.2,34.2,0,0,1-24.9,18.29,15.84,15.84,0,0,1-9.53-1.34c-10.68-5.6-18.07-21.94-13.35-34.68,5.71,0,11.37-.25,17,.1,3,.18,4.44-.61,5.67-3.36,7.45-16.54,15.1-33,22.65-49.48a40.69,40.69,0,0,0,1.35-4.29H689.84c5.8-15,11.72-29.15,16.62-43.62a103.08,103.08,0,0,0,5.19-24.72c.58-7.17-.1-14.92-8.24-18.84a33,33,0,0,0-23.3-2.4c-13.28,3.44-22.39,12.74-31.26,22.28-17.23,18.54-29,40.57-39.5,63.3-1.5,3.25-3.25,4.4-6.75,4.27-7.16-.26-14.33,0-21.49-.13-3-.08-4.41.89-5.49,3.7-4.76,12.43-9.79,24.76-14.71,37.13-1.09,2.73-2.16,5.46-3.65,9.23h25.42l-40.86,105c12.4,0,24.34.09,36.28-.14,1.07,0,2.51-1.86,3.09-3.17,2.73-6.07,5.23-12.24,7.79-18.39q15.56-37.32,31.17-74.62c.7-1.65,2.17-4.1,3.41-4.19C629.81,516.76,636.1,517,643,517ZM560.28,376.26c-12.72-1.9-24.44-3.47-36.08-5.5-3.37-.58-5,.24-6.8,3.06C504.34,394.32,491,414.65,478,435.17c-2,3.14-4.09,4.08-7.65,3.81-11.12-.83-22.27-1.26-33.39-2-2.69-.18-4.19.5-5.45,3-2.38,4.76-5.22,9.29-7.85,13.92-3.34,5.86-6.66,11.73-10.34,18.24l38.61,3.16c-2,3.08-3.5,5.43-5,7.78-14.09,22-26.07,44.92-29.49,71.38-2.33,18,1.26,34.26,14.17,47.47,20.87,21.35,54.16,18.62,72.93,4.52,26.65-20,42.44-48.24,58-76.62.76-1.37-.12-3.65-.24-5.5-1.58.53-3.38.74-4.73,1.63-17,11.16-35,19.92-55.11,23.72a47.53,47.53,0,0,1-28.39-2.82c-4.42-1.91-7.66-5-8.71-9.63-1.7-7.58-2.21-15.46,1.36-22.51,5.7-11.24,12.26-22.05,18.34-33.1,1.71-3.11,4.06-3.74,7.4-3.42,11.1,1.07,22.24,1.79,33.34,2.84a7.26,7.26,0,0,0,7.2-3.1c7.9-10.1,16-20,24.09-30,.87-1.08,1.59-2.27,2.76-3.94l-46-2.67Zm730.6-26.93a41.44,41.44,0,1,0,41.28-41.28A41.23,41.23,0,0,0,1290.88,349.33Z"/><path class="cls-1" d="M1180.39,449.24c4.1,15.24,3.07,29.75,2.31,44.19-1.29,24.59-5.14,48.66-15.66,71.24a124.53,124.53,0,0,1-24.72,35.49c-12.72,12.77-28,17-44.7,8.84-11.67-5.71-20.76-14.43-23.71-28-.35-1.62-.72-3.24-1.43-6.44-5,5.35-9.14,10.28-13.82,14.63-14.12,13.13-29,25.11-48.74,28.8-40.48,7.57-79-18.87-87-59.32-5.51-27.81,1.63-53.14,14.35-77.41,9.89-18.85,25.49-33.23,39.43-48.86,11.28-12.65,21.31-26,27.71-41.82,4.56-11.25,6.42-23.07,7-35.07.41-8.28-7.14-14-14.45-10.17a80.62,80.62,0,0,0-20.49,15.34c-5.3,5.53-8.62,13-12.84,19.53-.76,1.17-1.68,2.22-3.08,4.06-.73-1.93-1.4-2.91-1.43-3.91-.56-19.42.72-38.67,7.49-57.08,2.09-5.71,4.78-11.53,8.52-16.26,10-12.65,20.22-25.18,31.28-36.89A39.09,39.09,0,0,1,1037,257.5c16,.62,28.68,12.88,30.83,30.75a80.1,80.1,0,0,1-.8,24.24c-3.16,16.48-6.3,33.21-14.33,48.16-7.39,13.76-16,26.86-24.17,40.22-4.34,7.1-9.05,14-13.2,21.2-8,13.85-11.55,28.67-8.38,44.64,2.91,14.66,15,22.23,29.47,18.3,11.55-3.16,20.26-10.39,27.38-19.84,18.48-24.51,29.93-52.37,36.94-81.83,5.14-21.64,7.61-43.91,11.32-65.9,1.61-9.5,2.9-19.08,5.13-28.43a33.38,33.38,0,0,1,13-19.06c11.38-8.5,25-5.24,30.67,7.72a37.09,37.09,0,0,1,1.36,27.72q-26.62,78.47-52.92,157.06c-3,9-5.32,18.22-3.5,27.94,2.9,15.45,13.37,21.45,27.87,15.32,10.8-4.56,20-11.63,26.28-21.56,6.49-10.22,12.15-21,18.18-31.49C1178.61,451.72,1179.29,450.85,1180.39,449.24Z"/><path class="cls-1" d="M939.75,756.7c-10.77-37.47-30.45-68.48-63.9-89.89,0,9.89-.33,19.44.06,29a226.28,226.28,0,0,1-6.19,63.92c-4,16-14.19,28.91-26.32,40-53.67,48.84-138.35,26.54-161.2-44.86-16.12-50.38,6.06-103.47,51.5-126.12,11.6-5.78,23.87-9.45,36.86-9.85,17.44-.54,34.91-1.14,52.34-.7,7.46.18,14.86,2.9,21.94,4.39V582.9l-1.3-.39q-6.81,7.5-13.61,15c-14.58,16.06-37.46,19.43-55.9,8.21-20.79-12.64-30.64-35.34-25.65-60.73a103.86,103.86,0,0,1,7-21.16c9.84-22.56,20.44-44.79,30-67.47a41.9,41.9,0,0,0,1-28.93c-1.34-4.31-3.64-8.17-8.43-9a11,11,0,0,0-11.65,5.18c-2.38,3.75-4.92,7.66-6.12,11.86-4.38,15.35-8.21,30.86-12.3,46.3-.51,2-1.29,3.83-2,5.75l-1.4-.14a38,38,0,0,1-.85-6c.29-18.15,0-36.34,1.21-54.43,1.7-26.16,14.26-47.27,33.71-64.13,13.38-11.59,28.67-7.49,35.51,8.86,6,14.47,5.74,29.51.92,44-5.49,16.55-12.53,32.57-18.59,48.93-2.29,6.19-4.6,12.59-5.35,19.07-1.19,10.11,5.55,20.26,14.56,24.05,9.35,3.94,19.16,1.4,26.71-6.59,8.69-9.19,12.29-20.51,13.3-32.65,2.65-31.85,4.8-63.75,7.46-95.6a38.49,38.49,0,0,1,4-13.72c3.93-7.82,11.46-11.4,18.44-9.74,7.42,1.76,14.71,9.89,14.62,17.73-.18,17.62-.57,35.25-1.57,52.84-1.92,33.57-4.34,67.11-6.53,100.66-2.39,36.71-4.73,73.43-7.23,110.13-.22,3.25.65,5.21,3.32,7,6.6,4.48,13.55,8.66,19.4,14,23.05,21.12,36.54,47.47,41.4,78.31.88,5.59,2,11.14,2.74,16.75.39,3.08.07,6.25.07,9.38ZM844.6,689.92c0-4.94,0-8.76,0-12.58,0-4,.63-8,.2-12-1.36-12.49.12-13.66-12.76-19.12-11.45-4.85-23-2.87-34.35-.45-18.74,4-33.49,14.93-46.51,28.51a54.29,54.29,0,0,0-14.84,30.42c-4.5,30.67,17,58.4,49.09,61.76,28,2.93,54.45-18.26,57.54-47.81C844,708.78,844.13,698.78,844.6,689.92Z"/><path class="cls-1" d="M414.53,444.72l-18.84-8c2-3.5,3.66-6.71,5.55-9.78a99.77,99.77,0,0,0,14.15-38.12,62.45,62.45,0,0,0-1.1-21.74c-2.38-11-13.64-14.54-22.63-7.69-7.59,5.79-11.42,14.17-14.67,22.79-8.22,21.77-7.34,43.15,3.81,63.68,12.3,22.63,19.56,46.75,24.25,72,3.82,20.56,3.1,40.72-.9,61C399.49,602.5,383,617.32,359,620.1c-12.76,1.49-25.36,1.7-37.47-2.82-15.35-5.73-26.13-17.31-34.28-30.83-18.2-30.14-24.35-63-19.4-97.86,3.72-26.25,11.68-51,27.4-72.55,5-6.86,12-12.34,18.37-18.09,1.56-1.4,4.39-1.37,6.63-2-.4,2.31-.1,5.1-1.31,6.84-8.22,11.91-10.42,25.48-11,39.39-.41,10.3-.8,20.95,4.39,30.28a54.89,54.89,0,0,0,11.69,13.94c4.61,4.07,8.64,3.46,13.59-.32,7.39-5.66,10.83-12.91,10.41-22.47-1-23.41-5.34-46.28-10.44-69s-3.16-45,2.83-67.15c4.31-16,11.36-30.6,22.14-43.18,10.23-11.93,22-21.5,38.12-24.86,18.1-3.78,32.95,1.44,40.87,16.8,3,5.8,4.16,13,4.36,19.67.39,13.12-.5,26.28-.8,39.43a19.07,19.07,0,0,0,.48,5.45c1,3.71,4.61,5.33,7.73,3.34,20.52-13.07,43.47-15.88,67-16a35.21,35.21,0,0,1,9.76,1.69c1.22.36,3,2.31,2.79,3.25a4.78,4.78,0,0,1-3.23,3.13c-15.44,1.86-28,10.32-40.85,17.92-34.22,20.29-59.25,48.51-72.65,86.4C415.78,441.73,415.25,442.93,414.53,444.72Z"/><path class="cls-1" d="M1285.12,614.61c-19.86,8-36.69,6.42-51.09-11.13-.63,35.39-1.24,69.53-1.86,104.09H1195.4V701.2q0-133,0-265.91c0-4.16-.37-8.31-.57-12.47-.67-13.83,9.09-24.46,22.1-24.08,12.39.37,21.58,11.9,20.38,25.28-.35,3.93-.06,7.93-.06,11.9l1.22,1.32c.67-1.29,1.08-2.84,2-3.82,22.62-22.7,49.08-33.66,81.1-24.7,26.64,7.46,45.06,32.19,47.49,60.66,1.86,21.65-4.77,41.26-13.82,60.07-7.55,15.69-17,30.49-25.38,45.77a20,20,0,0,0-2.72,8.25c-1.51,31.86-17.11,55.41-43.15,72.4-8.57,5.59-18.21,9.6-27.54,13.93-1.74.81-4.37-.31-6.58-.54.87-2.3,1.15-5.19,2.74-6.79,5.69-5.77,12-11,17.76-16.65,6.91-6.81,10.95-15.4,14-24.48C1285,619.56,1284.81,617.54,1285.12,614.61Zm36.75-111.38c5.92-6.54,6.69-23.12,1.75-31.84-11.51-20.28-38.69-20.08-54.11-6-6.61,6-12.46,12.93-18.38,19.67-2.43,2.77-4.13,6.17-6.16,9.28,17.65-9.42,35.93-10.17,54.6-6.31C1308.73,489.89,1317.71,492.8,1321.87,503.23Zm-50.43,21.52a28.53,28.53,0,0,0-21.23,10.17c-9.69,11.24-5.74,26.36,8.13,31.64,11.11,4.22,25.12.76,32.83-8.26,4.15-4.87,6.54-10.38,5.14-17C1294.18,531.27,1285.14,524.78,1271.44,524.75Z"/><path class="cls-1" d="M643,517c-6.86,0-13.15-.24-19.4.19-1.24.09-2.71,2.54-3.41,4.19Q604.48,558.66,589,596c-2.56,6.15-5.06,12.32-7.79,18.39-.58,1.31-2,3.15-3.09,3.17-11.94.23-23.88.14-36.28.14l40.86-105H557.26c1.49-3.77,2.56-6.5,3.65-9.23,4.92-12.37,10-24.7,14.71-37.13,1.08-2.81,2.54-3.78,5.49-3.7,7.16.18,14.33-.13,21.49.13,3.5.13,5.25-1,6.75-4.27,10.52-22.73,22.27-44.76,39.5-63.3,8.87-9.54,18-18.84,31.26-22.28a33,33,0,0,1,23.3,2.4c8.14,3.92,8.82,11.67,8.24,18.84a103.08,103.08,0,0,1-5.19,24.72c-4.9,14.47-10.82,28.59-16.62,43.62h36.33a40.69,40.69,0,0,1-1.35,4.29c-7.55,16.5-15.2,32.94-22.65,49.48-1.23,2.75-2.68,3.54-5.67,3.36-5.61-.35-11.27-.1-17-.1-4.72,12.74,2.67,29.08,13.35,34.68a15.84,15.84,0,0,0,9.53,1.34,34.2,34.2,0,0,0,24.9-18.29c4-7.46,6.86-15.48,10.2-23.26.59-1.37.74-3,1.57-4.18s2.15-1.73,3.26-2.56c.58,1.19,1.76,2.43,1.66,3.56-1,10.26-1.65,20.59-3.37,30.74-2.8,16.48-7.45,32.63-15.65,47.19s-19,27.36-37.62,28.63A49.57,49.57,0,0,1,660.28,612c-9.61-5.08-13.76-14-17.15-23.59-7.92-22.49-7.53-45.06-1-67.74C642.31,519.87,642.46,519.11,643,517Zm-1.35-54.37c7.84,0,14.93.06,22-.07a3.36,3.36,0,0,0,2.55-1.72c3.7-10.66,7.44-21.32,10.65-32.13.63-2.13-.39-6.63-1.6-7a10.61,10.61,0,0,0-8.26,1.14C653.45,432.46,647.33,446.92,641.61,462.63Z"/><path class="cls-1" d="M560.28,376.26l-46.42,65,46,2.67c-1.17,1.67-1.89,2.86-2.76,3.94-8,10-16.19,19.91-24.09,30a7.26,7.26,0,0,1-7.2,3.1c-11.1-1-22.24-1.77-33.34-2.84-3.34-.32-5.69.31-7.4,3.42-6.08,11-12.64,21.86-18.34,33.1-3.57,7-3.06,14.93-1.36,22.51,1.05,4.65,4.29,7.72,8.71,9.63a47.53,47.53,0,0,0,28.39,2.82c20.12-3.8,38.13-12.56,55.11-23.72,1.35-.89,3.15-1.1,4.73-1.63.12,1.85,1,4.13.24,5.5-15.56,28.38-31.35,56.61-58,76.62-18.77,14.1-52.06,16.83-72.93-4.52-12.91-13.21-16.5-29.5-14.17-47.47,3.42-26.46,15.4-49.34,29.49-71.38,1.5-2.35,3-4.7,5-7.78l-38.61-3.16c3.68-6.51,7-12.38,10.34-18.24,2.63-4.63,5.47-9.16,7.85-13.92,1.26-2.51,2.76-3.19,5.45-3,11.12.77,22.27,1.2,33.39,2,3.56.27,5.66-.67,7.65-3.81,13-20.52,26.36-40.85,39.42-61.35,1.79-2.82,3.43-3.64,6.8-3.06C535.84,372.79,547.56,374.36,560.28,376.26Z"/><path class="cls-1" d="M1290.88,349.33a41.44,41.44,0,1,1,41,41.61A41.18,41.18,0,0,1,1290.88,349.33Zm6.13,0A35.59,35.59,0,0,0,1332.08,385c19.13.17,35.44-15.89,35.71-35.17.26-19.05-15.91-35.41-35.23-35.62S1297.12,330,1297,349.31Z"/><path d="M844.6,689.92c-.47,8.86-.58,18.86-1.62,28.76-3.09,29.55-29.54,50.74-57.54,47.81-32.1-3.36-53.59-31.09-49.09-61.76a54.29,54.29,0,0,1,14.84-30.42c13-13.58,27.77-24.53,46.51-28.51,11.35-2.42,22.9-4.4,34.35.45,12.88,5.46,11.4,6.63,12.76,19.12.43,3.94-.15,8-.2,12C844.56,681.16,844.6,685,844.6,689.92Z"/><path d="M1321.87,503.23c-4.16-10.43-13.14-13.34-22.3-15.23-18.67-3.86-37-3.11-54.6,6.31,2-3.11,3.73-6.51,6.16-9.28,5.92-6.74,11.77-13.64,18.38-19.67,15.42-14.05,42.6-14.25,54.11,6C1328.56,480.11,1327.79,496.69,1321.87,503.23Z"/><path d="M1271.44,524.75c13.7,0,22.74,6.52,24.87,16.55,1.4,6.62-1,12.13-5.14,17-7.71,9-21.72,12.48-32.83,8.26-13.87-5.28-17.82-20.4-8.13-31.64A28.53,28.53,0,0,1,1271.44,524.75Z"/><path d="M641.61,462.63c5.72-15.71,11.84-30.17,25.35-39.8a10.61,10.61,0,0,1,8.26-1.14c1.21.39,2.23,4.89,1.6,7-3.21,10.81-7,21.47-10.65,32.13a3.36,3.36,0,0,1-2.55,1.72C656.54,462.69,649.45,462.63,641.61,462.63Z"/><path d="M1297,349.31c.11-19.36,16.28-35.34,35.55-35.14s35.49,16.57,35.23,35.62c-.27,19.28-16.58,35.34-35.71,35.17A35.59,35.59,0,0,1,1297,349.31Zm40.81,1.18c2-1.42,3.53-2.38,4.87-3.58,4.13-3.71,5.07-8.54,4-13.69a10.56,10.56,0,0,0-9.22-8.72c-7-.92-14.07-.84-21.26-1.2v47.39h6.19V352.8c6-2.08,9.87-.22,13,4.32,2.44,3.54,5.78,6.47,8.19,10,2.81,4.16,6.31,4.44,11.13,3.19Z"/><path class="cls-1" d="M1337.82,350.49l16.94,19.85c-4.82,1.25-8.32,1-11.13-3.19-2.41-3.56-5.75-6.49-8.19-10-3.13-4.54-7-6.4-13-4.32v17.89h-6.19V323.3c7.19.36,14.29.28,21.26,1.2a10.56,10.56,0,0,1,9.22,8.72c1,5.15.09,10-4,13.69C1341.35,348.11,1339.78,349.07,1337.82,350.49ZM1322.69,329v17.42c5.78-.38,12.08,1.82,15.76-3.81,1.57-2.4,2-7.3.55-9.59C1335.32,327.1,1328.7,329.61,1322.69,329Z"/><path d="M1322.69,329c6,.62,12.63-1.89,16.31,4,1.43,2.29,1,7.19-.55,9.59-3.68,5.63-10,3.43-15.76,3.81Z"/></g></g></svg>